<?xml version="1.0" encoding="utf-8"?>
<!-- Generator: Adobe Illustrator 22.0.1, SVG Export Plug-In . SVG Version: 6.00 Build 0)  -->
<svg version="1.1" id="Ebene_1" xmlns="http://www.w3.org/2000/svg" xmlns:xlink="http://www.w3.org/1999/xlink" x="0px" y="0px"
	 viewBox="0 0 170.1 170.1" style="enable-background:new 0 0 170.1 170.1;" xml:space="preserve">
<style type="text/css">
	.st0{fill:url(#SVGID_1_);}
</style>
<linearGradient id="SVGID_1_" gradientUnits="userSpaceOnUse" x1="131.5456" y1="65.6091" x2="44.9585" y2="115.6002" gradientTransform="matrix(-1 0 0 -1 170.0787 170.0787)">
	<stop  offset="0.2822" style="stop-color:#FF3A3A"/>
	<stop  offset="0.9554" style="stop-color:#6F3FAF"/>
</linearGradient>
<path class="st0" d="M29.5,88.5l35.1,35.1c1.9,1.9,5.1,1.9,7,0c1.9-1.9,1.9-5.1,0-7L44.9,90h42.5h49.7c2.7,0,4.9-2.2,4.9-4.9
	s-2.2-4.9-4.9-4.9H87.4H44.9l26.7-26.7c1.9-1.9,1.9-5.1,0-7c-1-1-2.2-1.4-3.5-1.4c-1.3,0-2.5,0.5-3.5,1.4L29.5,81.5
	c-0.9,0.9-1.4,2.2-1.4,3.5C28.1,86.3,28.6,87.6,29.5,88.5z"/>
</svg>
