<?xml version="1.0" encoding="utf-8"?>
<!-- Generator: Adobe Illustrator 22.0.1, SVG Export Plug-In . SVG Version: 6.00 Build 0)  -->
<svg version="1.1" id="Ebene_1" xmlns="http://www.w3.org/2000/svg" xmlns:xlink="http://www.w3.org/1999/xlink" x="0px" y="0px"
	 viewBox="0 0 170.1 170.1" style="enable-background:new 0 0 170.1 170.1;" xml:space="preserve">
<style type="text/css">
	.st0{fill:url(#SVGID_1_);}
</style>
<linearGradient id="SVGID_1_" gradientUnits="userSpaceOnUse" x1="153.2753" y1="113.6181" x2="26.2042" y2="40.2536" gradientTransform="matrix(-1 0 0 1 170.0787 -3.051758e-05)">
	<stop  offset="0.2822" style="stop-color:#FF3A3A"/>
	<stop  offset="0.9554" style="stop-color:#6F3FAF"/>
</linearGradient>
<path class="st0" d="M3.5,90.1L55,141.6c2.8,2.8,7.5,2.8,10.3,0c2.8-2.8,2.8-7.5,0-10.3L26.1,92.3h62.4h73c4,0,7.2-3.2,7.2-7.2
	c0-4-3.2-7.2-7.2-7.2h-73H26.1l39.2-39.2c2.8-2.8,2.8-7.5,0-10.3c-1.5-1.5-3.2-2.1-5.1-2.1s-3.7,0.7-5.1,2.1L3.5,79.8
	c-1.3,1.3-2.1,3.2-2.1,5.1C1.4,86.9,2.2,88.8,3.5,90.1z"/>
</svg>
