<?xml version="1.0" encoding="utf-8"?>
<!-- Generator: Adobe Illustrator 22.0.1, SVG Export Plug-In . SVG Version: 6.00 Build 0)  -->
<svg version="1.1" id="Ebene_1" xmlns="http://www.w3.org/2000/svg" xmlns:xlink="http://www.w3.org/1999/xlink" x="0px" y="0px"
	 viewBox="0 0 85 85" style="enable-background:new 0 0 85 85;" xml:space="preserve">
<style type="text/css">
	.st0{fill:url(#SVGID_1_);}
	.st1{fill:#FFFFFF;}
</style>
<g>
	
		<linearGradient id="SVGID_1_" gradientUnits="userSpaceOnUse" x1="70.6892" y1="65.8631" x2="18.3685" y2="13.5425" gradientTransform="matrix(1 0 0 -1 0 86.0787)">
		<stop  offset="0.2574" style="stop-color:#FF3A3A"/>
		<stop  offset="0.7525" style="stop-color:#FF703A"/>
	</linearGradient>
	<path class="st0" d="M20.5,21.7C17.1,26,9.9,34.5,7.9,48.5C5.6,69.5,31.5,86.8,52.8,82c26.4-6,25.3-52.1,21.6-53.2
		c-2.4-0.7-4.7,5.8-8.1,4.2c-2.6-1.4-3.2-6.2-3.2-9.7c0-1.7-0.1-2.7-0.5-4.2c-1.3-5.7-4.1-10.8-8.1-15.1c-0.4-0.5-0.8-0.8-1.2-1.2
		c-2.1-1.8-3.5-1.9-4.4-1.8c-5.2,0.8,0.4,17.1-10.7,24.5c-3.1,1.9-9.2,2.1-8.6-5.2C30.9,12.3,25.6,15.4,20.5,21.7z"/>
	<path class="st1" d="M50.8,42.5c-2.7-0.7-4.8,6.1-8.6,5.1c-3.8-1.1-1.5-3.1-4.7-3.9c-3.3-0.8-6.7,4.2-8.7,12.3s2,15,11.2,15.1
		c6.6,0.4,11.4-4.7,12.7-11C53.9,53.8,53.5,43.2,50.8,42.5z"/>
</g>
</svg>
