<?xml version="1.0" encoding="utf-8"?>
<!-- Generator: Adobe Illustrator 22.0.1, SVG Export Plug-In . SVG Version: 6.00 Build 0)  -->
<svg version="1.1" id="Ebene_1" xmlns="http://www.w3.org/2000/svg" xmlns:xlink="http://www.w3.org/1999/xlink" x="0px" y="0px"
	 viewBox="0 0 170.1 170.1" style="enable-background:new 0 0 170.1 170.1;" xml:space="preserve">
<style type="text/css">
	.st0{fill:url(#SVGID_1_);}
	.st1{fill:url(#SVGID_2_);}
	.st2{fill:url(#SVGID_3_);}
</style>
<g>
	
		<linearGradient id="SVGID_1_" gradientUnits="userSpaceOnUse" x1="-4.8506" y1="27.5489" x2="59.686" y2="64.8092" gradientTransform="matrix(1 0 0 -1 0 170.0788)">
		<stop  offset="0.2" style="stop-color:#FF3A3A"/>
		<stop  offset="0.8" style="stop-color:#D73B5B"/>
	</linearGradient>
	<path class="st0" d="M41.3,85H13.4C7.1,85,2.1,90.2,2.1,96.3v55.2c0,6.3,5.2,11.4,11.4,11.4h27.9c6.3,0,11.4-5.2,11.4-11.4V96.3
		C52.9,90.2,47.7,85,41.3,85z"/>
	
		<linearGradient id="SVGID_2_" gradientUnits="userSpaceOnUse" x1="35.0455" y1="56.6563" x2="133.4109" y2="113.4476" gradientTransform="matrix(1 0 0 -1 0 170.0788)">
		<stop  offset="0.2" style="stop-color:#F33A44"/>
		<stop  offset="0.8" style="stop-color:#8C3E97"/>
	</linearGradient>
	<path class="st1" d="M98.1,7.1H70.2c-6.3,0-11.4,5.2-11.4,11.4v133.2c0,6.3,5.2,11.4,11.4,11.4h27.9c6.3,0,11.4-5.2,11.4-11.4V18.4
		C109.7,12.1,104.5,7.1,98.1,7.1z"/>
	
		<linearGradient id="SVGID_3_" gradientUnits="userSpaceOnUse" x1="101.5436" y1="42.6604" x2="183.7168" y2="90.1032" gradientTransform="matrix(1 0 0 -1 0 170.0788)">
		<stop  offset="0.2" style="stop-color:#FF3A3A"/>
		<stop  offset="0.8" style="stop-color:#6F3FAF"/>
	</linearGradient>
	<path class="st2" d="M156.6,44.4h-27.9c-6.3,0-11.4,5.2-11.4,11.4v95.9c0,6.3,5.2,11.4,11.4,11.4h27.9c6.3,0,11.4-5.2,11.4-11.4
		V55.8C168.1,49.6,162.9,44.4,156.6,44.4z"/>
</g>
</svg>
