<?xml version="1.0" encoding="utf-8"?>
<!-- Generator: Adobe Illustrator 22.0.1, SVG Export Plug-In . SVG Version: 6.00 Build 0)  -->
<svg version="1.1" id="Ebene_1" xmlns="http://www.w3.org/2000/svg" xmlns:xlink="http://www.w3.org/1999/xlink" x="0px" y="0px"
	 viewBox="0 0 170.1 170.1" style="enable-background:new 0 0 170.1 170.1;" xml:space="preserve">
<style type="text/css">
	.st0{fill:url(#SVGID_1_);}
	.st1{fill:url(#SVGID_2_);}
	.st2{fill:url(#SVGID_3_);}
	.st3{fill:url(#SVGID_4_);}
	.st4{fill:url(#SVGID_5_);}
	.st5{fill:url(#SVGID_6_);}
	.st6{fill:url(#SVGID_7_);}
	.st7{fill:url(#SVGID_8_);}
	.st8{fill:url(#SVGID_9_);}
	.st9{display:none;fill:#0000FF;}
</style>
<linearGradient id="SVGID_1_" gradientUnits="userSpaceOnUse" x1="71.3579" y1="99.6421" x2="99.6421" y2="71.3579">
	<stop  offset="0.1386" style="stop-color:#FFBA44"/>
	<stop  offset="0.8614" style="stop-color:#F59B00"/>
</linearGradient>
<circle class="st0" cx="85.5" cy="85.5" r="20"/>
<linearGradient id="SVGID_2_" gradientUnits="userSpaceOnUse" x1="112.5" y1="85.5" x2="127.5" y2="85.5">
	<stop  offset="0.3465" style="stop-color:#F59B00"/>
	<stop  offset="0.8614" style="stop-color:#BF7800"/>
</linearGradient>
<path class="st1" d="M124.5,89h-9c-1.7,0-3-1.3-3-3v-1c0-1.7,1.3-3,3-3h9c1.7,0,3,1.3,3,3v1C127.5,87.7,126.2,89,124.5,89z"/>
<linearGradient id="SVGID_3_" gradientUnits="userSpaceOnUse" x1="116.0582" y1="117.5956" x2="118.4639" y2="108.6176" gradientTransform="matrix(0.7071 0.7071 -0.7071 0.7071 106.8934 -53.0635)">
	<stop  offset="0.1386" style="stop-color:#FFBA44"/>
	<stop  offset="0.8663" style="stop-color:#F59B00"/>
</linearGradient>
<path class="st2" d="M110.5,115.5l-6.4-6.4c-1.2-1.2-1.2-3.1,0-4.2l0.7-0.7c1.2-1.2,3.1-1.2,4.2,0l6.4,6.4c1.2,1.2,1.2,3.1,0,4.2
	l-0.7,0.7C113.6,116.7,111.7,116.7,110.5,115.5z"/>
<linearGradient id="SVGID_4_" gradientUnits="userSpaceOnUse" x1="94.8403" y1="120.4196" x2="89.1597" y2="110.5804" gradientTransform="matrix(0 1 -1 0 201 28)">
	<stop  offset="0.1386" style="stop-color:#FFD387"/>
	<stop  offset="0.8614" style="stop-color:#FFBA44"/>
</linearGradient>
<path class="st3" d="M82,124.5v-9c0-1.7,1.3-3,3-3h1c1.7,0,3,1.3,3,3v9c0,1.7-1.3,3-3,3h-1C83.3,127.5,82,126.2,82,124.5z"/>
<linearGradient id="SVGID_5_" gradientUnits="userSpaceOnUse" x1="54.1117" y1="103.3511" x2="63.3493" y2="112.5886" gradientTransform="matrix(0.7071 -0.7071 0.7071 0.7071 -57.2939 74.6802)">
	<stop  offset="0.1386" style="stop-color:#FFD387"/>
	<stop  offset="0.8614" style="stop-color:#FFBA44"/>
</linearGradient>
<path class="st4" d="M66.2,108.8l-6.4,6.4c-1.2,1.2-3.1,1.2-4.2,0l-0.7-0.7c-1.2-1.2-1.2-3.1,0-4.2l6.4-6.4c1.2-1.2,3.1-1.2,4.2,0
	l0.7,0.7C67.4,105.7,67.4,107.6,66.2,108.8z"/>
<linearGradient id="SVGID_6_" gradientUnits="userSpaceOnUse" x1="46.3812" y1="90.1188" x2="55.6188" y2="80.8812">
	<stop  offset="0.1386" style="stop-color:#FFD387"/>
	<stop  offset="0.8614" style="stop-color:#FFBA44"/>
</linearGradient>
<path class="st5" d="M55.5,89h-9c-1.6,0-3-1.3-3-3v-1c0-1.7,1.3-3,3-3h9c1.6,0,3,1.3,3,3v1C58.5,87.7,57.2,89,55.5,89z"/>
<linearGradient id="SVGID_7_" gradientUnits="userSpaceOnUse" x1="54.1776" y1="64.2108" x2="56.5832" y2="55.2328" gradientTransform="matrix(0.7071 0.7071 -0.7071 0.7071 64.2782 -20.1812)">
	<stop  offset="0.1386" style="stop-color:#FFBA44"/>
	<stop  offset="0.8614" style="stop-color:#F59B00"/>
</linearGradient>
<path class="st6" d="M61.9,66.9l-6.4-6.4c-1.2-1.2-1.2-3.1,0-4.2l0.7-0.7c1.2-1.2,3.1-1.2,4.2,0l6.4,6.4c1.2,1.2,1.2,3.1,0,4.2
	l-0.7,0.7C65,68,63.1,68,61.9,66.9z"/>
<linearGradient id="SVGID_8_" gradientUnits="userSpaceOnUse" x1="74.3812" y1="62.1188" x2="83.6188" y2="52.8812" gradientTransform="matrix(0 1 -1 0 143 -28)">
	<stop  offset="0.1386" style="stop-color:#FFBA44"/>
	<stop  offset="0.8614" style="stop-color:#F59B00"/>
</linearGradient>
<path class="st7" d="M82,55.5v-9c0-1.6,1.3-3,3-3h1c1.7,0,3,1.3,3,3v9c0,1.6-1.3,3-3,3h-1C83.3,58.5,82,57.2,82,55.5z"/>
<linearGradient id="SVGID_9_" gradientUnits="userSpaceOnUse" x1="108.0511" y1="52.2244" x2="117.2886" y2="61.4619" gradientTransform="matrix(0.7071 -0.7071 0.7071 0.7071 -10.0721 100.6838)">
	<stop  offset="0.1436" style="stop-color:#F59B00"/>
	<stop  offset="0.8861" style="stop-color:#BF7800"/>
</linearGradient>
<path class="st8" d="M115.4,60.5l-6.4,6.4c-1.2,1.2-3.1,1.2-4.2,0l-0.7-0.7c-1.2-1.2-1.2-3.1,0-4.2l6.4-6.4c1.2-1.2,3.1-1.2,4.2,0
	l0.7,0.7C116.6,57.4,116.6,59.3,115.4,60.5z"/>
<circle class="st9" cx="68.4" cy="101.7" r="3.5"/>
</svg>
