<?xml version="1.0" encoding="utf-8"?>
<!-- Generator: Adobe Illustrator 22.0.1, SVG Export Plug-In . SVG Version: 6.00 Build 0)  -->
<svg version="1.1" id="Ebene_1" xmlns="http://www.w3.org/2000/svg" xmlns:xlink="http://www.w3.org/1999/xlink" x="0px" y="0px"
	 viewBox="0 0 170.1 170.1" style="enable-background:new 0 0 170.1 170.1;" xml:space="preserve">
<style type="text/css">
	.st0{fill:url(#SVGID_1_);}
	.st1{fill:url(#SVGID_2_);}
	.st2{fill:url(#SVGID_3_);}
	.st3{fill:url(#SVGID_4_);}
	.st4{fill:url(#SVGID_5_);}
	.st5{fill:url(#SVGID_6_);}
	.st6{fill:url(#SVGID_7_);}
	.st7{fill:url(#SVGID_8_);}
	.st8{fill:url(#SVGID_9_);}
</style>
<g>
	
		<linearGradient id="SVGID_1_" gradientUnits="userSpaceOnUse" x1="57.007" y1="56.9858" x2="113.093" y2="113.0717" gradientTransform="matrix(1 0 0 -1 0 170.0788)">
		<stop  offset="0.1386" style="stop-color:#FFBA44"/>
		<stop  offset="0.8614" style="stop-color:#F59B00"/>
	</linearGradient>
	<circle class="st0" cx="85.1" cy="85.1" r="39.7"/>
	
		<linearGradient id="SVGID_2_" gradientUnits="userSpaceOnUse" x1="138.5893" y1="85.0287" x2="168.3333" y2="85.0287" gradientTransform="matrix(1 0 0 -1 0 170.0788)">
		<stop  offset="0.3465" style="stop-color:#F59B00"/>
		<stop  offset="0.8614" style="stop-color:#BF7800"/>
	</linearGradient>
	<path class="st1" d="M162.4,92h-17.8c-3.4,0-5.9-2.6-5.9-5.9v-2c0-3.4,2.6-5.9,5.9-5.9h17.8c3.4,0,5.9,2.6,5.9,5.9v2
		C168.3,89.4,165.8,92,162.4,92z"/>
	
		<linearGradient id="SVGID_3_" gradientUnits="userSpaceOnUse" x1="148.0378" y1="48.078" x2="152.8081" y2="65.8808" gradientTransform="matrix(0.7071 0.7071 0.7071 -0.7071 -13.3693 67.1992)">
		<stop  offset="0.1386" style="stop-color:#FFBA44"/>
		<stop  offset="0.8663" style="stop-color:#F59B00"/>
	</linearGradient>
	<path class="st2" d="M134.6,144.5l-12.7-12.7c-2.4-2.4-2.4-6.1,0-8.3l1.4-1.4c2.4-2.4,6.1-2.4,8.3,0l12.7,12.7
		c2.4,2.4,2.4,6.1,0,8.3l-1.4,1.4C140.8,146.9,137,146.9,134.6,144.5z"/>
	
		<linearGradient id="SVGID_4_" gradientUnits="userSpaceOnUse" x1="131.0934" y1="44.3735" x2="119.8292" y2="63.884" gradientTransform="matrix(0 1 1 0 30.9213 28)">
		<stop  offset="0.1386" style="stop-color:#FFD387"/>
		<stop  offset="0.8614" style="stop-color:#FFBA44"/>
	</linearGradient>
	<path class="st3" d="M78.1,162.4v-17.8c0-3.4,2.6-5.9,5.9-5.9h2c3.4,0,5.9,2.6,5.9,5.9v17.8c0,3.4-2.6,5.9-5.9,5.9h-2
		C80.7,168.3,78.1,165.8,78.1,162.4z"/>
	
		<linearGradient id="SVGID_5_" gradientUnits="userSpaceOnUse" x1="15.4979" y1="72.4715" x2="33.8155" y2="54.1541" gradientTransform="matrix(0.7071 -0.7071 -0.7071 -0.7071 62.9688 194.9429)">
		<stop  offset="0.1386" style="stop-color:#FFD387"/>
		<stop  offset="0.8614" style="stop-color:#FFBA44"/>
	</linearGradient>
	<path class="st4" d="M46.8,131.3l-12.7,12.7c-2.4,2.4-6.1,2.4-8.3,0l-1.4-1.4c-2.4-2.4-2.4-6.1,0-8.3l12.7-12.7
		c2.4-2.4,6.1-2.4,8.3,0l1.4,1.4C49.2,125.1,49.2,128.9,46.8,131.3z"/>
	
		<linearGradient id="SVGID_6_" gradientUnits="userSpaceOnUse" x1="7.4797" y1="75.8698" x2="25.7977" y2="94.1877" gradientTransform="matrix(1 0 0 -1 0 170.0788)">
		<stop  offset="0.1386" style="stop-color:#FFD387"/>
		<stop  offset="0.8614" style="stop-color:#FFBA44"/>
	</linearGradient>
	<path class="st5" d="M25.6,92H7.7c-3.2,0-5.9-2.6-5.9-5.9v-2c0-3.4,2.6-5.9,5.9-5.9h17.8c3.2,0,5.9,2.6,5.9,5.9v2
		C31.5,89.4,28.9,92,25.6,92z"/>
	
		<linearGradient id="SVGID_7_" gradientUnits="userSpaceOnUse" x1="18.591" y1="101.456" x2="23.3611" y2="119.2588" gradientTransform="matrix(0.7071 0.7071 0.7071 -0.7071 -55.9845 100.0815)">
		<stop  offset="0.1386" style="stop-color:#FFBA44"/>
		<stop  offset="0.8614" style="stop-color:#F59B00"/>
	</linearGradient>
	<path class="st6" d="M38.3,48.2L25.6,35.5c-2.4-2.4-2.4-6.1,0-8.3l1.4-1.4c2.4-2.4,6.1-2.4,8.3,0L48,38.5c2.4,2.4,2.4,6.1,0,8.3
		l-1.4,1.4C44.4,50.3,40.6,50.3,38.3,48.2z"/>
	
		<linearGradient id="SVGID_8_" gradientUnits="userSpaceOnUse" x1="35.4797" y1="102.9698" x2="53.7977" y2="121.2877" gradientTransform="matrix(0 1 1 0 -27.0787 -28)">
		<stop  offset="0.1386" style="stop-color:#FFBA44"/>
		<stop  offset="0.8614" style="stop-color:#F59B00"/>
	</linearGradient>
	<path class="st7" d="M78.1,25.6V7.7c0-3.2,2.6-5.9,5.9-5.9h2c3.4,0,5.9,2.6,5.9,5.9v17.8c0,3.2-2.6,5.9-5.9,5.9h-2
		C80.7,31.5,78.1,28.9,78.1,25.6z"/>
	
		<linearGradient id="SVGID_9_" gradientUnits="userSpaceOnUse" x1="137.2184" y1="122.9749" x2="155.5357" y2="104.6576" gradientTransform="matrix(0.7071 -0.7071 -0.7071 -0.7071 110.1906 220.9465)">
		<stop  offset="0.1436" style="stop-color:#F59B00"/>
		<stop  offset="0.8861" style="stop-color:#BF7800"/>
	</linearGradient>
	<path class="st8" d="M144.3,35.5l-12.7,12.7c-2.4,2.4-6.1,2.4-8.3,0l-1.4-1.4c-2.4-2.4-2.4-6.1,0-8.3l12.7-12.7
		c2.4-2.4,6.1-2.4,8.3,0l1.4,1.4C146.7,29.3,146.7,33.1,144.3,35.5z"/>
</g>
</svg>
