<?xml version="1.0" standalone="yes"?>
<svg xmlns="http://www.w3.org/2000/svg" width="749" height="749">
<path style="fill:#ffffff; stroke:none;" d="M0 0L0 749L749 749L749 0L0 0z"/>
<path style="fill:#ec620d; stroke:none;" d="M359 55C340.605 76.5817 332.312 105.05 336.285 133C337.787 143.564 343.074 153.385 344 164L343 164C336.6 150.309 322.623 123.714 306 122C314.883 138.882 320.421 156.947 315.522 176C312.377 188.228 303.76 197.58 298.873 209C290.157 229.364 295.167 251.025 310.171 266.961C341.692 300.439 395.625 299.945 431 273.844C447.731 261.499 456.833 242.748 454.285 222C453.327 214.203 452.708 207.062 446 202C442.141 215.334 434.067 229.475 419 231.699C414.036 232.432 406.949 232.471 403.782 227.786C400.107 222.349 406.814 212.866 409.247 208C415.78 194.933 421.329 180.924 418.532 166C414.885 146.532 395.461 129.01 384.67 113C376.164 100.381 367.22 87.4463 362.09 73C360.022 67.178 361.249 60.4299 359 55M290 308L290 309L459 309C446.117 303.594 423.038 308 409 308L290 308z"/>
<path style="fill:#414143; stroke:none;" d="M290 309C290 313.151 287.917 325.231 292.318 327.397C296.122 329.268 302.845 328 307 328L340 328L459 328L459 309L290 309z"/>
<path style="fill:#ec620d; stroke:none;" d="M290 327L291 328L290 327z"/>
<path style="fill:#414143; stroke:none;" d="M275 341C285.557 365.468 307.955 385.822 316.59 411C325.415 436.729 325.64 468.14 330.08 495C341.19 562.201 349.389 630.066 362 697C367.626 697 381.785 699.581 386.258 695.972C390.069 692.896 390.034 679.714 390.728 675C393.677 654.982 396.78 634.963 400.08 615C407.287 571.409 414.289 527.711 420.728 484C424.181 460.56 425.147 433.494 432.599 411C440.949 385.794 463.477 365.421 474 341L275 341z"/>
<path style="fill:#ec620d; stroke:none;" d="M275 342L276 343L275 342M473 342L474 343L473 342M278 347L279 348L278 347M470 347L471 348L470 347M280 350L281 351L280 350M467 352L468 353L467 352M283 355L284 356L283 355M465 355L466 356L465 355M286 360L287 361L286 360M462 360L463 361L462 360M288 363L289 364L288 363M289 365L290 366L289 365M459 365L460 366L459 365M291 368L292 369L291 368M456 370L457 371L456 370M294 373L295 374L294 373M454 373L455 374L454 373M297 378L298 379L297 378M451 378L452 379L451 378M300 383L301 384L300 383M448 383L449 384L448 383M302 386L303 387L302 386M445 388L446 389L445 388M305 391L306 392L305 391M443 391L444 392L443 391M442 393L443 394L442 393M308 396L309 397L308 396M440 396L441 397L440 396M311 401L312 402L311 401M437 401L438 402L437 401M313 404L314 405L313 404M435 404L436 405L435 404M434 406L435 407L434 406M316 409L317 410L316 409M317 414L318 415L317 414M431 415L432 416L431 415M318.333 420.667L318.667 421.333L318.333 420.667M430 421L431 422L430 421M319 427L320 428L319 427M429.333 427.667L429.667 428.333L429.333 427.667M320.333 433.667L320.667 434.333L320.333 433.667M428 434L429 435L428 434M321 440L322 441L321 440M427 440L428 441L427 440M322 446L323 447L322 446M426.333 446.667L426.667 447.333L426.333 446.667M323.333 452.667L323.667 453.333L323.333 452.667M425 453L426 454L425 453M324 459L325 460L324 459M424.333 459.667L424.667 460.333L424.333 459.667M325 465L326 466L325 465M423 466L424 467L423 466M326 472L327 473L326 472M422 472L423 473L422 472M327 478L328 479L327 478M421.333 478.667L421.667 479.333L421.333 478.667M328 484L329 485L328 484M420 485L421 486L420 485M329 491L330 492L329 491M419 491L420 492L419 491M330 497L331 498L330 497M418.333 497.667L418.667 498.333L418.333 497.667M331.333 503.667L331.667 504.333L331.333 503.667M417 504L418 505L417 504M332 510L333 511L332 510M416 510L417 511L416 510M333 516L334 517L333 516M415 517L416 518L415 517M334.333 522.667L334.667 523.333L334.333 522.667M414 523L415 524L414 523M335 529L336 530L335 529M413.333 529.667L413.667 530.333L413.333 529.667M336 535L337 536L336 535M412 536L413 537L412 536M337 542L338 543L337 542M411 542L412 543L411 542M338 548L339 549L338 548M410.333 548.667L410.667 549.333L410.333 548.667M339 554L340 555L339 554M409 555L410 556L409 555M340 561L341 562L340 561M408 561L409 562L408 561M341 567L342 568L341 567M407.333 567.667L407.667 568.333L407.333 567.667M342.333 573.667L342.667 574.333L342.333 573.667M406 574L407 575L406 574M343 580L344 581L343 580M405 580L406 581L405 580M344 586L345 587L344 586M404.333 586.667L404.667 587.333L404.333 586.667M345.333 592.667L345.667 593.333L345.333 592.667M403 593L404 594L403 593M346 599L347 600L346 599M402 599L403 600L402 599M347 605L348 606L347 605M401 606L402 607L401 606M348 612L349 613L348 612M400 612L401 613L400 612M349 618L350 619L349 618M399.333 618.667L399.667 619.333L399.333 618.667M350.333 624.667L350.667 625.333L350.333 624.667M398 625L399 626L398 625M351 631L352 632L351 631M397 631L398 632L397 631M352 637L353 638L352 637M396.333 637.667L396.667 638.333L396.333 637.667M353.333 643.667L353.667 644.333L353.333 643.667M395 644L396 645L395 644M354 650L355 651L354 650M394.333 650.667L394.667 651.333L394.333 650.667M355.333 656.667L355.667 657.333L355.333 656.667M393.333 656.667L393.667 657.333L393.333 656.667M356.333 662.667L356.667 663.333L356.333 662.667M392 663L393 664L392 663M357 669L358 670L357 669M391 669L392 670L391 669M358.333 675.667L358.667 676.333L358.333 675.667M390 676L391 677L390 676M359 682L360 683L359 682M389 682L390 683L389 682M360 688L361 689L360 688M388.333 688.667L388.667 689.333L388.333 688.667M361 694L362 695L361 694M387 695L388 696L387 695z"/>
</svg>
