<?xml version="1.0" encoding="utf-8"?>
<!-- Generator: Adobe Illustrator 22.0.1, SVG Export Plug-In . SVG Version: 6.00 Build 0)  -->
<svg version="1.1" id="Ebene_1" xmlns="http://www.w3.org/2000/svg" xmlns:xlink="http://www.w3.org/1999/xlink" x="0px" y="0px"
	 viewBox="0 0 170.1 170.1" style="enable-background:new 0 0 170.1 170.1;" xml:space="preserve">
<style type="text/css">
	.st0{fill:url(#SVGID_1_);}
</style>
<linearGradient id="SVGID_1_" gradientUnits="userSpaceOnUse" x1="-6.8971" y1="31.943" x2="176.9971" y2="138.1145" gradientTransform="matrix(1 0 0 -1 0 170.0788)">
	<stop  offset="0.203" style="stop-color:#FF3A3A"/>
	<stop  offset="0.8614" style="stop-color:#8E3E96"/>
</linearGradient>
<path class="st0" d="M116.6,85l45.6-45.6c8.7-8.7,8.7-22.9,0-31.6l0,0c-8.7-8.7-22.9-8.7-31.6,0L85,53.5L39.5,7.9
	c-8.7-8.7-22.9-8.7-31.6,0l0,0c-8.7,8.7-8.7,22.9,0,31.6L53.5,85L7.9,130.6c-8.7,8.7-8.7,22.9,0,31.6c8.7,8.7,22.9,8.7,31.6,0
	L85,116.6l45.6,45.6c8.7,8.7,22.9,8.7,31.6,0c8.7-8.7,8.7-22.9,0-31.6L116.6,85z"/>
</svg>
