<?xml version="1.0" encoding="utf-8"?>
<!-- Generator: Adobe Illustrator 22.0.1, SVG Export Plug-In . SVG Version: 6.00 Build 0)  -->
<svg version="1.1" id="Ebene_1" xmlns="http://www.w3.org/2000/svg" xmlns:xlink="http://www.w3.org/1999/xlink" x="0px" y="0px"
	 viewBox="0 0 170.1 170.1" style="enable-background:new 0 0 170.1 170.1;" xml:space="preserve">
<style type="text/css">
	.st0{fill:url(#SVGID_1_);}
	.st1{fill:url(#SVGID_2_);}
	.st2{fill:url(#SVGID_3_);}
	.st3{fill:#FFFFFF;}
</style>
<g>
	
		<linearGradient id="SVGID_1_" gradientUnits="userSpaceOnUse" x1="5.3766" y1="74.6972" x2="167.2159" y2="74.6972" gradientTransform="matrix(1 0 0 -1 0 170.0788)">
		<stop  offset="0" style="stop-color:#662D91"/>
		<stop  offset="1" style="stop-color:#FF0000"/>
	</linearGradient>
	<path class="st0" d="M163.7,48.9c-29.5,4-102.7-4.7-134.8-25.2c-2.3-1.4-5.2-0.3-5.9,2.3c-2.4,8.7-7.1,25.9-9.3,33.6
		c-0.6,2.4,0.3,5,2.4,6.4l3.6,2.3c1.6,1.1,1.3,3.4-0.4,4.1l-4.6,1.8c-2,0.8-3.4,2.6-3.7,4.7c-1.1,10.2-4.2,40.1-5.6,52.4
		c-0.3,2.9,1.8,5.4,4.7,5.6c29.5,2,69.3,12.7,80.8,16c2,0.5,4.2,0,5.7-1.6l4.2-4.4c0.9-1,2.5-0.5,2.8,0.6l1.9,6.4
		c0.4,1.5,1.5,2.7,2.8,3.4c6.6,3.4,26.7,13.1,41.4,9.9c2.9-0.6,5.2-3.1,5.5-6l4-37.1c0.2-2.2-0.8-4.2-2.6-5.4l-4.9-3.2
		c-1.7-1.2-1.3-3.9,0.9-4.4l4.1-0.9c2.5-0.5,4.3-2.6,4.5-5.1c1.2-11.1,4.5-41.6,5.7-52.7C167.6,50.3,165.7,48.5,163.7,48.9z
		 M59.3,115.3c-0.3,2-2.2,3.4-4.1,3.4c-0.2,0-0.5,0-0.8-0.1c-4.4-0.9-7.1-1.7-7.3-1.7c-2.2-0.8-3.3-3-2.7-5.3c0.8-2.2,3-3.3,5.3-2.7
		c0,0,2.4,0.8,6.3,1.5C58.3,110.8,59.7,113,59.3,115.3z M60.3,64.9c-1.8,13-12.6,5.1-12.6,1.8C47.7,63.5,61.9,53.5,60.3,64.9z
		 M82.7,119c-4.1,0.8-8.4,1.1-12.8,1.1c-0.4,0-0.9,0-1.4,0c-2.3,0-4.1-1.9-4.1-4.2s1.9-4.1,4.2-4.1c4.3,0.1,8.6-0.2,12.6-1
		c2.3-0.4,4.4,1.1,4.9,3.3C86.5,116.4,85,118.6,82.7,119z M103.4,98.8c0,4.4-0.6,10.8-6.4,15.1c-0.8,0.5-1.6,0.9-2.5,0.9
		c-1.3,0-2.5-0.5-3.3-1.6c-1.4-1.8-1.1-4.4,0.8-5.8c2.2-1.6,3-4.2,3-8.5v-0.2c0-2.3,1.8-4.2,4.2-4.2s4.2,1.8,4.2,4.2V98.8z
		 M107,79.8c-3.1,0.5-4.1,1.8-4.2,5.5c-0.1,2.3-1.9,4-4.2,4c-0.1,0-0.1,0-0.2,0c-2.3-0.1-4.1-2-4-4.3c0.3-7.5,4-12.1,11-13.4
		c2.3-0.4,4.4,1.1,4.9,3.3C110.8,77.2,109.2,79.4,107,79.8z M119.6,78.6c-2.2,0-4-1.6-4.1-3.8c-0.2-2.3,1.5-4.3,3.8-4.5
		c3.4-0.3,5.1-0.5,5.7-0.5c0.4-0.1,0.9-0.2,1.3-0.2l0,0c2.3,0,4.2,1.7,4.3,4c0.1,1.8-0.6,4-4.9,4.5c-1,0.1-2.7,0.3-5.7,0.5
		C119.8,78.6,119.7,78.6,119.6,78.6z M140,141.6c-2.9,1.7-8.3,3.3-12.4,3.3c-1.4,0-2.7-0.8-3.4-1.9c-1.4-2.3-1.6-4.3-0.8-6.8
		c0.4-1.2,1.4-2.2,2.6-2.6c3.4-1.2,9.5-1.2,12.6-0.4c1.1,0.2,2.2,0.9,2.7,1.9c0.4,0.6,0.6,1.4,0.8,2.2
		C142.3,139,141.5,140.7,140,141.6z M143.4,77.1l-7.3-4.3c-0.6-0.4-0.8-1.4-0.1-1.8l7-4.9c0.8-0.5,1.6,0,1.7,0.9l0.3,9.3
		C145,77,144.2,77.5,143.4,77.1z"/>
	<g>
		
			<linearGradient id="SVGID_2_" gradientUnits="userSpaceOnUse" x1="52.0991" y1="132.2677" x2="20.1644" y2="150.7052" gradientTransform="matrix(0.9998 2.132699e-02 2.132699e-02 -0.9998 -1.6401 169.5003)">
			<stop  offset="0" style="stop-color:#FFCA3A"/>
			<stop  offset="3.433079e-02" style="stop-color:#FFBE3A"/>
			<stop  offset="0.1505" style="stop-color:#FF9C3A"/>
			<stop  offset="0.2609" style="stop-color:#FF843A"/>
			<stop  offset="0.3621" style="stop-color:#FF753A"/>
			<stop  offset="0.4455" style="stop-color:#FF703A"/>
			<stop  offset="0.5741" style="stop-color:#FF733A"/>
			<stop  offset="0.6856" style="stop-color:#FF7E3A"/>
			<stop  offset="0.7909" style="stop-color:#FF903A"/>
			<stop  offset="0.8918" style="stop-color:#FFA93A"/>
			<stop  offset="0.9896" style="stop-color:#FFC93A"/>
			<stop  offset="0.9926" style="stop-color:#FFCA3A"/>
		</linearGradient>
		<path class="st1" d="M15.6,31.4c0-0.5,4.9-12.4,8.2-12.4c3.4,0.1,7.2,6.9,7.2,6.9l16.3-2.8l3.4-0.8c1.8-0.4,3.7,0.4,4.5,1.9
			l3.2,5.5L15.6,31.4z"/>
		
			<linearGradient id="SVGID_3_" gradientUnits="userSpaceOnUse" x1="68.6598" y1="162.5867" x2="4.9805" y2="98.9075" gradientTransform="matrix(0.9688 -0.2477 -0.2477 -0.9688 28.2397 189.6521)">
			<stop  offset="0.2574" style="stop-color:#FF3A3A"/>
			<stop  offset="0.7525" style="stop-color:#FF703A"/>
		</linearGradient>
		<path class="st2" d="M8.4,28.4c-2.2,4.7-6,12.8-5.2,28c1.5,16.9,23,49.7,29,49.8s30.7-36,33.5-49c3.2-14.3-3.2-35-5.7-35
			c-2.3-0.1-3,6.5-6.6,5.8c-2.8-0.8-4.4-5.1-5.3-8.2c-0.5-1.8-0.9-3-2-5C43.6,10.4,40,6.7,35.7,4c-0.5-0.3-1.1-0.6-1.5-0.9
			c-2.4-1.1-3.8-0.9-4.4-0.5c-4.6,1.9,4.3,15.7-4.1,25.3c-2.4,2.5-8,4.1-9.2-2.7C15.7,17.2,11.6,21.4,8.4,28.4z"/>
		<path class="st3" d="M40.3,34.6c-2.7,0-3,6.8-6.8,6.7c-3.8-0.1-2.2-2.5-5.3-2.5c-3.2,0-5.2,5.5-5.2,13.5c0,7.9,5.4,13.4,13.9,11.3
			c6.1-1.3,9.5-7,9.2-13.1C45.8,44.3,43.1,34.6,40.3,34.6z"/>
	</g>
</g>
</svg>
