<?xml version="1.0" encoding="utf-8"?>
<!-- Generator: Adobe Illustrator 22.0.1, SVG Export Plug-In . SVG Version: 6.00 Build 0)  -->
<svg version="1.1" id="Ebene_1" xmlns="http://www.w3.org/2000/svg" xmlns:xlink="http://www.w3.org/1999/xlink" x="0px" y="0px"
	 viewBox="0 0 170.1 170.1" style="enable-background:new 0 0 170.1 170.1;" xml:space="preserve">
<style type="text/css">
	.st0{fill:url(#SVGID_1_);}
	.st1{fill:url(#SVGID_2_);}
	.st2{fill:url(#SVGID_3_);}
</style>
<g id="Ebene_3">
	<g>
		
			<linearGradient id="SVGID_1_" gradientUnits="userSpaceOnUse" x1="21.5954" y1="52.4525" x2="91.4238" y2="52.4525" gradientTransform="matrix(1 0 0 -1 0 170.0788)">
			<stop  offset="0.1931" style="stop-color:#AF8A82"/>
			<stop  offset="0.802" style="stop-color:#8E665E"/>
		</linearGradient>
		<path class="st0" d="M53,66L21.7,166.8c-0.7,1.9,1.9,3.3,3.1,1.6l66.6-81.7"/>
		
			<linearGradient id="SVGID_2_" gradientUnits="userSpaceOnUse" x1="59.5186" y1="125.4158" x2="90.7785" y2="71.2721" gradientTransform="matrix(1 0 0 -1 0 170.0788)">
			<stop  offset="0.1931" style="stop-color:#FFB125"/>
			<stop  offset="0.7871" style="stop-color:#DB8E02"/>
		</linearGradient>
		<path class="st1" d="M95.4,91.7L47.1,65.6c-3.8-2.1-5.2-6.8-3.3-10.8l0,0c2.1-3.8,6.8-5.2,10.8-3.3L103,77.6
			c3.8,2.1,5.2,6.8,3.3,10.8l0,0C104.1,92.4,99.4,93.8,95.4,91.7z"/>
		
			<linearGradient id="SVGID_3_" gradientUnits="userSpaceOnUse" x1="46.8978" y1="131.3631" x2="148.5046" y2="131.3631" gradientTransform="matrix(1 0 0 -1 0 170.0788)">
			<stop  offset="0.1931" style="stop-color:#BBBBBB"/>
			<stop  offset="0.7871" style="stop-color:#909090"/>
		</linearGradient>
		<path class="st2" d="M147,53.3c2.1,1.2,1.9,4,0,4.9l-29.2,14.6c-9.2,4.5-18.4,4.9-25.9,0.9L64.1,58.7c-7.3-4-12.2-12-13.4-22.1
			L46.9,4.1c-0.2-2.4,2.1-4,4.2-2.8L147,53.3z"/>
	</g>
</g>
<g id="Ebene_1_1_">
</g>
</svg>
