<?xml version="1.0" encoding="utf-8"?>
<!-- Generator: Adobe Illustrator 22.0.1, SVG Export Plug-In . SVG Version: 6.00 Build 0)  -->
<svg version="1.1" id="Ebene_1" xmlns="http://www.w3.org/2000/svg" xmlns:xlink="http://www.w3.org/1999/xlink" x="0px" y="0px"
	 viewBox="0 0 170.1 170.1" style="enable-background:new 0 0 170.1 170.1;" xml:space="preserve">
<style type="text/css">
	.st0{fill:url(#SVGID_1_);}
	.st1{fill:url(#SVGID_2_);}
	.st2{fill:url(#SVGID_3_);}
	.st3{fill:url(#SVGID_4_);}
	.st4{fill:#FFFFFF;}
</style>
<g>
	<g id="Ebene_3">
		<g>
			
				<linearGradient id="SVGID_1_" gradientUnits="userSpaceOnUse" x1="38.1746" y1="30.3894" x2="76.4329" y2="30.3894" gradientTransform="matrix(1 0 0 -1 0 170.0788)">
				<stop  offset="0.1931" style="stop-color:#AF8A82"/>
				<stop  offset="0.802" style="stop-color:#8E665E"/>
			</linearGradient>
			<path class="st0" d="M55.4,111.4l-17.2,55.2c-0.4,1,1,1.8,1.7,0.9l36.5-44.8"/>
			
				<linearGradient id="SVGID_2_" gradientUnits="userSpaceOnUse" x1="58.9523" y1="70.3654" x2="76.0794" y2="40.7005" gradientTransform="matrix(1 0 0 -1 0 170.0788)">
				<stop  offset="0.1931" style="stop-color:#FFB125"/>
				<stop  offset="0.7871" style="stop-color:#DB8E02"/>
			</linearGradient>
			<path class="st1" d="M78.6,125.5l-26.5-14.3c-2.1-1.2-2.8-3.7-1.8-5.9l0,0c1.2-2.1,3.7-2.8,5.9-1.8l26.5,14.3
				c2.1,1.2,2.8,3.7,1.8,5.9l0,0C83.4,125.9,80.8,126.7,78.6,125.5z"/>
			
				<linearGradient id="SVGID_3_" gradientUnits="userSpaceOnUse" x1="52.0375" y1="73.6238" x2="107.707" y2="73.6238" gradientTransform="matrix(1 0 0 -1 0 170.0788)">
				<stop  offset="0.1931" style="stop-color:#BBBBBB"/>
				<stop  offset="0.7871" style="stop-color:#909090"/>
			</linearGradient>
			<path class="st2" d="M106.9,104.5c1.2,0.6,1,2.2,0,2.7l-16,8c-5,2.5-10.1,2.7-14.2,0.5l-15.2-8.3c-4-2.2-6.7-6.6-7.4-12.1
				L52,77.5c-0.1-1.3,1.2-2.2,2.3-1.5L106.9,104.5z"/>
		</g>
	</g>
	<g id="Ebene_1_1_">
		<g>
			
				<linearGradient id="SVGID_4_" gradientUnits="userSpaceOnUse" x1="126.8044" y1="147.8186" x2="69.5302" y2="90.5443" gradientTransform="matrix(1 0 0 -1 0 170.0788)">
				<stop  offset="0.2574" style="stop-color:#FF3A3A"/>
				<stop  offset="0.7525" style="stop-color:#FF703A"/>
			</linearGradient>
			<path class="st3" d="M71.9,23.9c-3.7,4.6-11.6,13.9-13.8,29.3c-2.6,23,25.8,41.9,49.2,36.6c28.9-6.6,27.7-57,23.6-58.2
				c-2.6-0.8-5.2,6.3-8.9,4.6c-2.8-1.5-3.5-6.8-3.5-10.6c0-1.8-0.1-3-0.5-4.6c-1.4-6.2-4.5-11.9-8.9-16.5c-0.4-0.5-0.9-0.9-1.3-1.3
				c-2.3-1.9-3.9-2.1-4.8-1.9c-5.7,0.9,0.4,18.7-11.7,26.8c-3.4,2.1-10.1,2.3-9.4-5.7C83.1,13.5,77.3,17,71.9,23.9z"/>
			<path class="st4" d="M104.9,46.7c-3-0.8-5.3,6.7-9.4,5.5c-4.1-1.2-1.7-3.4-5.2-4.3c-3.6-0.9-7.4,4.6-9.5,13.4
				c-2.2,8.8,2.2,16.4,12.3,16.5c7.2,0.4,12.5-5.2,13.9-12S107.9,47.4,104.9,46.7z"/>
		</g>
	</g>
</g>
</svg>
